<svg role="img" aria-labelledby="title desc" width="410" height="410" version="1.1" xmlns="http://www.w3.org/2000/svg"><title id="title">FormatX checkout QR</title><desc id="desc">Opens the selected FormatX plan checkout page.</desc><rect width="100%" height="100%" fill="#fff"/><path d="M40 40L50 40L50 50L40 50ZM50 40L60 40L60 50L50 50ZM60 40L70 40L70 50L60 50ZM70 40L80 40L80 50L70 50ZM80 40L90 40L90 50L80 50ZM90 40L100 40L100 50L90 50ZM100 40L110 40L110 50L100 50ZM130 40L140 40L140 50L130 50ZM150 40L160 40L160 50L150 50ZM180 40L190 40L190 50L180 50ZM190 40L200 40L200 50L190 50ZM210 40L220 40L220 50L210 50ZM220 40L230 40L230 50L220 50ZM240 40L250 40L250 50L240 50ZM250 40L260 40L260 50L250 50ZM270 40L280 40L280 50L270 50ZM300 40L310 40L310 50L300 50ZM310 40L320 40L320 50L310 50ZM320 40L330 40L330 50L320 50ZM330 40L340 40L340 50L330 50ZM340 40L350 40L350 50L340 50ZM350 40L360 40L360 50L350 50ZM360 40L370 40L370 50L360 50ZM40 50L50 50L50 60L40 60ZM100 50L110 50L110 60L100 60ZM120 50L130 50L130 60L120 60ZM130 50L140 50L140 60L130 60ZM140 50L150 50L150 60L140 60ZM160 50L170 50L170 60L160 60ZM180 50L190 50L190 60L180 60ZM200 50L210 50L210 60L200 60ZM220 50L230 50L230 60L220 60ZM230 50L240 50L240 60L230 60ZM250 50L260 50L260 60L250 60ZM270 50L280 50L280 60L270 60ZM280 50L290 50L290 60L280 60ZM300 50L310 50L310 60L300 60ZM360 50L370 50L370 60L360 60ZM40 60L50 60L50 70L40 70ZM60 60L70 60L70 70L60 70ZM70 60L80 60L80 70L70 70ZM80 60L90 60L90 70L80 70ZM100 60L110 60L110 70L100 70ZM120 60L130 60L130 70L120 70ZM150 60L160 60L160 70L150 70ZM160 60L170 60L170 70L160 70ZM180 60L190 60L190 70L180 70ZM200 60L210 60L210 70L200 70ZM220 60L230 60L230 70L220 70ZM240 60L250 60L250 70L240 70ZM270 60L280 60L280 70L270 70ZM300 60L310 60L310 70L300 70ZM320 60L330 60L330 70L320 70ZM330 60L340 60L340 70L330 70ZM340 60L350 60L350 70L340 70ZM360 60L370 60L370 70L360 70ZM40 70L50 70L50 80L40 80ZM60 70L70 70L70 80L60 80ZM70 70L80 70L80 80L70 80ZM80 70L90 70L90 80L80 80ZM100 70L110 70L110 80L100 80ZM120 70L130 70L130 80L120 80ZM130 70L140 70L140 80L130 80ZM140 70L150 70L150 80L140 80ZM170 70L180 70L180 80L170 80ZM190 70L200 70L200 80L190 80ZM200 70L210 70L210 80L200 80ZM210 70L220 70L220 80L210 80ZM220 70L230 70L230 80L220 80ZM230 70L240 70L240 80L230 80ZM240 70L250 70L250 80L240 80ZM260 70L270 70L270 80L260 80ZM280 70L290 70L290 80L280 80ZM300 70L310 70L310 80L300 80ZM320 70L330 70L330 80L320 80ZM330 70L340 70L340 80L330 80ZM340 70L350 70L350 80L340 80ZM360 70L370 70L370 80L360 80ZM40 80L50 80L50 90L40 90ZM60 80L70 80L70 90L60 90ZM70 80L80 80L80 90L70 90ZM80 80L90 80L90 90L80 90ZM100 80L110 80L110 90L100 90ZM130 80L140 80L140 90L130 90ZM140 80L150 80L150 90L140 90ZM150 80L160 80L160 90L150 90ZM170 80L180 80L180 90L170 90ZM180 80L190 80L190 90L180 90ZM190 80L200 80L200 90L190 90ZM200 80L210 80L210 90L200 90ZM220 80L230 80L230 90L220 90ZM240 80L250 80L250 90L240 90ZM250 80L260 80L260 90L250 90ZM260 80L270 80L270 90L260 90ZM270 80L280 80L280 90L270 90ZM300 80L310 80L310 90L300 90ZM320 80L330 80L330 90L320 90ZM330 80L340 80L340 90L330 90ZM340 80L350 80L350 90L340 90ZM360 80L370 80L370 90L360 90ZM40 90L50 90L50 100L40 100ZM100 90L110 90L110 100L100 100ZM130 90L140 90L140 100L130 100ZM150 90L160 90L160 100L150 100ZM160 90L170 90L170 100L160 100ZM180 90L190 90L190 100L180 100ZM210 90L220 90L220 100L210 100ZM220 90L230 90L230 100L220 100ZM240 90L250 90L250 100L240 100ZM250 90L260 90L260 100L250 100ZM280 90L290 90L290 100L280 100ZM300 90L310 90L310 100L300 100ZM360 90L370 90L370 100L360 100ZM40 100L50 100L50 110L40 110ZM50 100L60 100L60 110L50 110ZM60 100L70 100L70 110L60 110ZM70 100L80 100L80 110L70 110ZM80 100L90 100L90 110L80 110ZM90 100L100 100L100 110L90 110ZM100 100L110 100L110 110L100 110ZM120 100L130 100L130 110L120 110ZM140 100L150 100L150 110L140 110ZM160 100L170 100L170 110L160 110ZM180 100L190 100L190 110L180 110ZM200 100L210 100L210 110L200 110ZM220 100L230 100L230 110L220 110ZM240 100L250 100L250 110L240 110ZM260 100L270 100L270 110L260 110ZM280 100L290 100L290 110L280 110ZM300 100L310 100L310 110L300 110ZM310 100L320 100L320 110L310 110ZM320 100L330 100L330 110L320 110ZM330 100L340 100L340 110L330 110ZM340 100L350 100L350 110L340 110ZM350 100L360 100L360 110L350 110ZM360 100L370 100L370 110L360 110ZM120 110L130 110L130 120L120 120ZM130 110L140 110L140 120L130 120ZM150 110L160 110L160 120L150 120ZM160 110L170 110L170 120L160 120ZM170 110L180 110L180 120L170 120ZM180 110L190 110L190 120L180 120ZM200 110L210 110L210 120L200 120ZM210 110L220 110L220 120L210 120ZM240 110L250 110L250 120L240 120ZM270 110L280 110L280 120L270 120ZM280 110L290 110L290 120L280 120ZM120 120L130 120L130 130L120 130ZM140 120L150 120L150 130L140 130ZM150 120L160 120L160 130L150 130ZM160 120L170 120L170 130L160 130ZM180 120L190 120L190 130L180 130ZM190 120L200 120L200 130L190 130ZM210 120L220 120L220 130L210 130ZM220 120L230 120L230 130L220 130ZM230 120L240 120L240 130L230 130ZM240 120L250 120L250 130L240 130ZM260 120L270 120L270 130L260 130ZM280 120L290 120L290 130L280 130ZM300 120L310 120L310 130L300 130ZM320 120L330 120L330 130L320 130ZM340 120L350 120L350 130L340 130ZM350 120L360 120L360 130L350 130ZM40 130L50 130L50 140L40 140ZM60 130L70 130L70 140L60 140ZM70 130L80 130L80 140L70 140ZM90 130L100 130L100 140L90 140ZM100 130L110 130L110 140L100 140ZM120 130L130 130L130 140L120 140ZM130 130L140 130L140 140L130 140ZM160 130L170 130L170 140L160 140ZM170 130L180 130L180 140L170 140ZM200 130L210 130L210 140L200 140ZM210 130L220 130L220 140L210 140ZM220 130L230 130L230 140L220 140ZM240 130L250 130L250 140L240 140ZM270 130L280 130L280 140L270 140ZM290 130L300 130L300 140L290 140ZM310 130L320 130L320 140L310 140ZM330 130L340 130L340 140L330 140ZM350 130L360 130L360 140L350 140ZM40 140L50 140L50 150L40 150ZM50 140L60 140L60 150L50 150ZM60 140L70 140L70 150L60 150ZM70 140L80 140L80 150L70 150ZM80 140L90 140L90 150L80 150ZM90 140L100 140L100 150L90 150ZM100 140L110 140L110 150L100 150ZM120 140L130 140L130 150L120 150ZM140 140L150 140L150 150L140 150ZM150 140L160 140L160 150L150 150ZM170 140L180 140L180 150L170 150ZM180 140L190 140L190 150L180 150ZM190 140L200 140L200 150L190 150ZM210 140L220 140L220 150L210 150ZM230 140L240 140L240 150L230 150ZM240 140L250 140L250 150L240 150ZM250 140L260 140L260 150L250 150ZM270 140L280 140L280 150L270 150ZM280 140L290 140L290 150L280 150ZM310 140L320 140L320 150L310 150ZM340 140L350 140L350 150L340 150ZM360 140L370 140L370 150L360 150ZM50 150L60 150L60 160L50 160ZM70 150L80 150L80 160L70 160ZM110 150L120 150L120 160L110 160ZM120 150L130 150L130 160L120 160ZM140 150L150 150L150 160L140 160ZM170 150L180 150L180 160L170 160ZM210 150L220 150L220 160L210 160ZM240 150L250 150L250 160L240 160ZM250 150L260 150L260 160L250 160ZM260 150L270 150L270 160L260 160ZM270 150L280 150L280 160L270 160ZM280 150L290 150L290 160L280 160ZM300 150L310 150L310 160L300 160ZM330 150L340 150L340 160L330 160ZM340 150L350 150L350 160L340 160ZM360 150L370 150L370 160L360 160ZM40 160L50 160L50 170L40 170ZM50 160L60 160L60 170L50 170ZM60 160L70 160L70 170L60 170ZM80 160L90 160L90 170L80 170ZM90 160L100 160L100 170L90 170ZM100 160L110 160L110 170L100 170ZM120 160L130 160L130 170L120 170ZM130 160L140 160L140 170L130 170ZM150 160L160 160L160 170L150 170ZM170 160L180 160L180 170L170 170ZM200 160L210 160L210 170L200 170ZM210 160L220 160L220 170L210 170ZM220 160L230 160L230 170L220 170ZM240 160L250 160L250 170L240 170ZM270 160L280 160L280 170L270 170ZM280 160L290 160L290 170L280 170ZM290 160L300 160L300 170L290 170ZM300 160L310 160L310 170L300 170ZM310 160L320 160L320 170L310 170ZM320 160L330 160L330 170L320 170ZM340 160L350 160L350 170L340 170ZM350 160L360 160L360 170L350 170ZM360 160L370 160L370 170L360 170ZM40 170L50 170L50 180L40 180ZM50 170L60 170L60 180L50 180ZM70 170L80 170L80 180L70 180ZM110 170L120 170L120 180L110 180ZM130 170L140 170L140 180L130 180ZM140 170L150 170L150 180L140 180ZM150 170L160 170L160 180L150 180ZM160 170L170 170L170 180L160 180ZM180 170L190 170L190 180L180 180ZM200 170L210 170L210 180L200 180ZM220 170L230 170L230 180L220 180ZM250 170L260 170L260 180L250 180ZM270 170L280 170L280 180L270 180ZM310 170L320 170L320 180L310 180ZM320 170L330 170L330 180L320 180ZM340 170L350 170L350 180L340 180ZM350 170L360 170L360 180L350 180ZM40 180L50 180L50 190L40 190ZM60 180L70 180L70 190L60 190ZM80 180L90 180L90 190L80 190ZM90 180L100 180L100 190L90 190ZM100 180L110 180L110 190L100 190ZM110 180L120 180L120 190L110 190ZM120 180L130 180L130 190L120 190ZM140 180L150 180L150 190L140 190ZM160 180L170 180L170 190L160 190ZM170 180L180 180L180 190L170 190ZM180 180L190 180L190 190L180 190ZM190 180L200 180L200 190L190 190ZM210 180L220 180L220 190L210 190ZM220 180L230 180L230 190L220 190ZM230 180L240 180L240 190L230 190ZM250 180L260 180L260 190L250 190ZM280 180L290 180L290 190L280 190ZM290 180L300 180L300 190L290 190ZM330 180L340 180L340 190L330 190ZM350 180L360 180L360 190L350 190ZM360 180L370 180L370 190L360 190ZM40 190L50 190L50 200L40 200ZM50 190L60 190L60 200L50 200ZM80 190L90 190L90 200L80 200ZM90 190L100 190L100 200L90 200ZM110 190L120 190L120 200L110 200ZM120 190L130 190L130 200L120 200ZM130 190L140 190L140 200L130 200ZM140 190L150 190L150 200L140 200ZM170 190L180 190L180 200L170 200ZM180 190L190 190L190 200L180 200ZM210 190L220 190L220 200L210 200ZM230 190L240 190L240 200L230 200ZM240 190L250 190L250 200L240 200ZM270 190L280 190L280 200L270 200ZM280 190L290 190L290 200L280 200ZM300 190L310 190L310 200L300 200ZM320 190L330 190L330 200L320 200ZM340 190L350 190L350 200L340 200ZM360 190L370 190L370 200L360 200ZM50 200L60 200L60 210L50 210ZM70 200L80 200L80 210L70 210ZM80 200L90 200L90 210L80 210ZM90 200L100 200L100 210L90 210ZM100 200L110 200L110 210L100 210ZM110 200L120 200L120 210L110 210ZM130 200L140 200L140 210L130 210ZM140 200L150 200L150 210L140 210ZM160 200L170 200L170 210L160 210ZM180 200L190 200L190 210L180 210ZM200 200L210 200L210 210L200 210ZM210 200L220 200L220 210L210 210ZM230 200L240 200L240 210L230 210ZM250 200L260 200L260 210L250 210ZM260 200L270 200L270 210L260 210ZM300 200L310 200L310 210L300 210ZM320 200L330 200L330 210L320 210ZM330 200L340 200L340 210L330 210ZM340 200L350 200L350 210L340 210ZM350 200L360 200L360 210L350 210ZM40 210L50 210L50 220L40 220ZM60 210L70 210L70 220L60 220ZM100 210L110 210L110 220L100 220ZM120 210L130 210L130 220L120 220ZM140 210L150 210L150 220L140 220ZM150 210L160 210L160 220L150 220ZM170 210L180 210L180 220L170 220ZM190 210L200 210L200 220L190 220ZM200 210L210 210L210 220L200 220ZM220 210L230 210L230 220L220 220ZM240 210L250 210L250 220L240 220ZM250 210L260 210L260 220L250 220ZM260 210L270 210L270 220L260 220ZM270 210L280 210L280 220L270 220ZM290 210L300 210L300 220L290 220ZM300 210L310 210L310 220L300 220ZM320 210L330 210L330 220L320 220ZM360 210L370 210L370 220L360 220ZM40 220L50 220L50 230L40 230ZM60 220L70 220L70 230L60 230ZM80 220L90 220L90 230L80 230ZM90 220L100 220L100 230L90 230ZM100 220L110 220L110 230L100 230ZM130 220L140 220L140 230L130 230ZM160 220L170 220L170 230L160 230ZM170 220L180 220L180 230L170 230ZM180 220L190 220L190 230L180 230ZM190 220L200 220L200 230L190 230ZM200 220L210 220L210 230L200 230ZM210 220L220 220L220 230L210 230ZM220 220L230 220L230 230L220 230ZM240 220L250 220L250 230L240 230ZM260 220L270 220L270 230L260 230ZM270 220L280 220L280 230L270 230ZM300 220L310 220L310 230L300 230ZM310 220L320 220L320 230L310 230ZM320 220L330 220L330 230L320 230ZM340 220L350 220L350 230L340 230ZM360 220L370 220L370 230L360 230ZM40 230L50 230L50 240L40 240ZM70 230L80 230L80 240L70 240ZM80 230L90 230L90 240L80 240ZM100 230L110 230L110 240L100 240ZM120 230L130 230L130 240L120 240ZM140 230L150 230L150 240L140 240ZM150 230L160 230L160 240L150 240ZM160 230L170 230L170 240L160 240ZM180 230L190 230L190 240L180 240ZM200 230L210 230L210 240L200 240ZM220 230L230 230L230 240L220 240ZM230 230L240 230L240 240L230 240ZM250 230L260 230L260 240L250 240ZM270 230L280 230L280 240L270 240ZM290 230L300 230L300 240L290 240ZM310 230L320 230L320 240L310 240ZM330 230L340 230L340 240L330 240ZM350 230L360 230L360 240L350 240ZM40 240L50 240L50 250L40 250ZM50 240L60 240L60 250L50 250ZM60 240L70 240L70 250L60 250ZM90 240L100 240L100 250L90 250ZM110 240L120 240L120 250L110 250ZM120 240L130 240L130 250L120 250ZM130 240L140 240L140 250L130 250ZM140 240L150 240L150 250L140 250ZM160 240L170 240L170 250L160 250ZM180 240L190 240L190 250L180 250ZM200 240L210 240L210 250L200 250ZM210 240L220 240L220 250L210 250ZM230 240L240 240L240 250L230 250ZM250 240L260 240L260 250L250 250ZM260 240L270 240L270 250L260 250ZM280 240L290 240L290 250L280 250ZM290 240L300 240L300 250L290 250ZM310 240L320 240L320 250L310 250ZM330 240L340 240L340 250L330 250ZM340 240L350 240L350 250L340 250ZM40 250L50 250L50 260L40 260ZM70 250L80 250L80 260L70 260ZM80 250L90 250L90 260L80 260ZM100 250L110 250L110 260L100 260ZM120 250L130 250L130 260L120 260ZM130 250L140 250L140 260L130 260ZM150 250L160 250L160 260L150 260ZM170 250L180 250L180 260L170 260ZM180 250L190 250L190 260L180 260ZM190 250L200 250L200 260L190 260ZM230 250L240 250L240 260L230 260ZM240 250L250 250L250 260L240 260ZM250 250L260 250L260 260L250 260ZM260 250L270 250L270 260L260 260ZM280 250L290 250L290 260L280 260ZM300 250L310 250L310 260L300 260ZM320 250L330 250L330 260L320 260ZM330 250L340 250L340 260L330 260ZM340 250L350 250L350 260L340 260ZM360 250L370 250L370 260L360 260ZM50 260L60 260L60 270L50 270ZM60 260L70 260L70 270L60 270ZM100 260L110 260L110 270L100 270ZM130 260L140 260L140 270L130 270ZM140 260L150 260L150 270L140 270ZM160 260L170 260L170 270L160 270ZM170 260L180 260L180 270L170 270ZM180 260L190 260L190 270L180 270ZM190 260L200 260L200 270L190 270ZM200 260L210 260L210 270L200 270ZM210 260L220 260L220 270L210 270ZM220 260L230 260L230 270L220 270ZM240 260L250 260L250 270L240 270ZM260 260L270 260L270 270L260 270ZM280 260L290 260L290 270L280 270ZM290 260L300 260L300 270L290 270ZM310 260L320 260L320 270L310 270ZM330 260L340 260L340 270L330 270ZM340 260L350 260L350 270L340 270ZM350 260L360 260L360 270L350 270ZM360 260L370 260L370 270L360 270ZM40 270L50 270L50 280L40 280ZM50 270L60 270L60 280L50 280ZM80 270L90 270L90 280L80 280ZM90 270L100 270L100 280L90 280ZM100 270L110 270L110 280L100 280ZM120 270L130 270L130 280L120 280ZM150 270L160 270L160 280L150 280ZM180 270L190 270L190 280L180 280ZM200 270L210 270L210 280L200 280ZM210 270L220 270L220 280L210 280ZM230 270L240 270L240 280L230 280ZM240 270L250 270L250 280L240 280ZM280 270L290 270L290 280L280 280ZM290 270L300 270L300 280L290 280ZM300 270L310 270L310 280L300 280ZM310 270L320 270L320 280L310 280ZM320 270L330 270L330 280L320 280ZM330 270L340 270L340 280L330 280ZM340 270L350 270L350 280L340 280ZM350 270L360 270L360 280L350 280ZM120 280L130 280L130 290L120 290ZM130 280L140 280L140 290L130 290ZM140 280L150 280L150 290L140 290ZM150 280L160 280L160 290L150 290ZM160 280L170 280L170 290L160 290ZM170 280L180 280L180 290L170 290ZM180 280L190 280L190 290L180 290ZM200 280L210 280L210 290L200 290ZM230 280L240 280L240 290L230 290ZM240 280L250 280L250 290L240 290ZM250 280L260 280L260 290L250 290ZM260 280L270 280L270 290L260 290ZM280 280L290 280L290 290L280 290ZM300 280L310 280L310 290L300 290ZM310 280L320 280L320 290L310 290ZM340 280L350 280L350 290L340 290ZM350 280L360 280L360 290L350 290ZM360 280L370 280L370 290L360 290ZM40 300L50 300L50 310L40 310ZM50 300L60 300L60 310L50 310ZM60 300L70 300L70 310L60 310ZM70 300L80 300L80 310L70 310ZM80 300L90 300L90 310L80 310ZM90 300L100 300L100 310L90 310ZM100 300L110 300L110 310L100 310ZM120 300L130 300L130 310L120 310ZM140 300L150 300L150 310L140 310ZM150 300L160 300L160 310L150 310ZM170 300L180 300L180 310L170 310ZM180 300L190 300L190 310L180 310ZM190 300L200 300L200 310L190 310ZM210 300L220 300L220 310L210 310ZM220 300L230 300L230 310L220 310ZM230 300L240 300L240 310L230 310ZM250 300L260 300L260 310L250 310ZM260 300L270 300L270 310L260 310ZM280 300L290 300L290 310L280 310ZM300 300L310 300L310 310L300 310ZM310 300L320 300L320 310L310 310ZM320 300L330 300L330 310L320 310ZM330 300L340 300L340 310L330 310ZM340 300L350 300L350 310L340 310ZM350 300L360 300L360 310L350 310ZM360 300L370 300L370 310L360 310ZM40 310L50 310L50 320L40 320ZM100 310L110 310L110 320L100 320ZM130 310L140 310L140 320L130 320ZM150 310L160 310L160 320L150 320ZM160 310L170 310L170 320L160 320ZM170 310L180 310L180 320L170 320ZM190 310L200 310L200 320L190 320ZM210 310L220 310L220 320L210 320ZM230 310L240 310L240 320L230 320ZM240 310L250 310L250 320L240 320ZM270 310L280 310L280 320L270 320ZM280 310L290 310L290 320L280 320ZM300 310L310 310L310 320L300 320ZM360 310L370 310L370 320L360 320ZM40 320L50 320L50 330L40 330ZM60 320L70 320L70 330L60 330ZM70 320L80 320L80 330L70 330ZM80 320L90 320L90 330L80 330ZM100 320L110 320L110 330L100 330ZM120 320L130 320L130 330L120 330ZM130 320L140 320L140 330L130 330ZM150 320L160 320L160 330L150 330ZM170 320L180 320L180 330L170 330ZM180 320L190 320L190 330L180 330ZM200 320L210 320L210 330L200 330ZM210 320L220 320L220 330L210 330ZM240 320L250 320L250 330L240 330ZM250 320L260 320L260 330L250 330ZM260 320L270 320L270 330L260 330ZM280 320L290 320L290 330L280 330ZM300 320L310 320L310 330L300 330ZM320 320L330 320L330 330L320 330ZM330 320L340 320L340 330L330 330ZM340 320L350 320L350 330L340 330ZM360 320L370 320L370 330L360 330ZM40 330L50 330L50 340L40 340ZM60 330L70 330L70 340L60 340ZM70 330L80 330L80 340L70 340ZM80 330L90 330L90 340L80 340ZM100 330L110 330L110 340L100 340ZM120 330L130 330L130 340L120 340ZM150 330L160 330L160 340L150 340ZM160 330L170 330L170 340L160 340ZM170 330L180 330L180 340L170 340ZM180 330L190 330L190 340L180 340ZM200 330L210 330L210 340L200 340ZM240 330L250 330L250 340L240 340ZM250 330L260 330L260 340L250 340ZM280 330L290 330L290 340L280 340ZM290 330L300 330L300 340L290 340ZM300 330L310 330L310 340L300 340ZM320 330L330 330L330 340L320 340ZM330 330L340 330L340 340L330 340ZM340 330L350 330L350 340L340 340ZM360 330L370 330L370 340L360 340ZM40 340L50 340L50 350L40 350ZM60 340L70 340L70 350L60 350ZM70 340L80 340L80 350L70 350ZM80 340L90 340L90 350L80 350ZM100 340L110 340L110 350L100 350ZM120 340L130 340L130 350L120 350ZM130 340L140 340L140 350L130 350ZM140 340L150 340L150 350L140 350ZM160 340L170 340L170 350L160 350ZM180 340L190 340L190 350L180 350ZM210 340L220 340L220 350L210 350ZM220 340L230 340L230 350L220 350ZM230 340L240 340L240 350L230 350ZM250 340L260 340L260 350L250 350ZM270 340L280 340L280 350L270 350ZM290 340L300 340L300 350L290 350ZM320 340L330 340L330 350L320 350ZM330 340L340 340L340 350L330 350ZM340 340L350 340L350 350L340 350ZM40 350L50 350L50 360L40 360ZM100 350L110 350L110 360L100 360ZM130 350L140 350L140 360L130 360ZM150 350L160 350L160 360L150 360ZM180 350L190 350L190 360L180 360ZM190 350L200 350L200 360L190 360ZM210 350L220 350L220 360L210 360ZM230 350L240 350L240 360L230 360ZM240 350L250 350L250 360L240 360ZM260 350L270 350L270 360L260 360ZM280 350L290 350L290 360L280 360ZM290 350L300 350L300 360L290 360ZM300 350L310 350L310 360L300 360ZM310 350L320 350L320 360L310 360ZM320 350L330 350L330 360L320 360ZM330 350L340 350L340 360L330 360ZM350 350L360 350L360 360L350 360ZM40 360L50 360L50 370L40 370ZM50 360L60 360L60 370L50 370ZM60 360L70 360L70 370L60 370ZM70 360L80 360L80 370L70 370ZM80 360L90 360L90 370L80 370ZM90 360L100 360L100 370L90 370ZM100 360L110 360L110 370L100 370ZM120 360L130 360L130 370L120 370ZM140 360L150 360L150 370L140 370ZM160 360L170 360L170 370L160 370ZM180 360L190 360L190 370L180 370ZM200 360L210 360L210 370L200 370ZM220 360L230 360L230 370L220 370ZM230 360L240 360L240 370L230 370ZM240 360L250 360L250 370L240 370ZM270 360L280 360L280 370L270 370ZM280 360L290 360L290 370L280 370ZM290 360L300 360L300 370L290 370ZM300 360L310 360L310 370L300 370ZM310 360L320 360L320 370L310 370ZM350 360L360 360L360 370L350 370Z" fill="#000"/></svg>